<svg id="Capa_1" data-name="Capa 1" xmlns="http://www.w3.org/2000/svg" viewBox="0 0 77.74 29.39"><defs><style>.cls-1{fill:#fff;}</style></defs><path class="cls-1" d="M91,150.86l-1.83.1c-.44,0-.84,0-1.19,0s-.51,0-.49-.11l0-.09a8,8,0,0,1,.52-.7,2.77,2.77,0,0,0,.43-.75l0-.12c0-.06.08-.22.18-.5l.29-.88c.1-.31.2-.6.3-.88s.15-.44.18-.5l.4-1.08.5-1.28c.18-.45.35-.89.51-1.31l.45-1.15.3-.77c.44-1.11.87-2.21,1.3-3.32a.39.39,0,0,1-.28,0c-.12,0-.16-.07-.11-.1l.15-.17c.18-.19.35-.35.49-.49s.3-.3.48-.49A2.44,2.44,0,0,0,94,136a1.32,1.32,0,0,1,.21-.23l.48-.43c.22-.2.61-.51,1.15-.94l.59-.58.89-.86.89-.79a2.32,2.32,0,0,1,.57-.41l.13-.05a1.1,1.1,0,0,1-.25.45,1,1,0,0,0-.21.31l-.08.24c-.09.11,0,.17.14.17s.38.11.59.36l.07.08s.06,0,.13,0l.11.06.34.39a.31.31,0,0,1,.1.23,1.39,1.39,0,0,1-.08.34l-.15.48a6.62,6.62,0,0,1-.76,1.12,3.53,3.53,0,0,0-.3.44l-.48.75c-.17.25-.32.49-.47.7s-.24.32-.27.31-.12,0-.07-.23a1.27,1.27,0,0,0,0-.55c-.12-.2-.22-.38-.32-.53a3.42,3.42,0,0,0-.36-.43,1.12,1.12,0,0,0-.47-.29l-.11,0c-.06,0-.17.24-.35.68s-.36.93-.57,1.48-.4,1.1-.59,1.64-.33.9-.4,1.1l-.71,2-.21.57c-.12.3-.24.62-.38,1s-.26.66-.38,1l-.21.57-.24.68s0,.05,0,.13a.36.36,0,0,0,0,.15l.08.07a2,2,0,0,1,.39,0,5.78,5.78,0,0,0,.63,0l.77,0a2.94,2.94,0,0,0,.75-.14l.6-.2a5.16,5.16,0,0,1,.4-.59,1.06,1.06,0,0,1,.45-.39h.11c.06,0,.08,0,.07.06l0,.11a7.14,7.14,0,0,1-.94,1.1c-.51.55-1,1.09-1.59,1.64s-1,1-1.48,1.42-.64.55-.61.45l-.85,1-.26.09c-.09,0-.12,0-.09-.07Z" transform="translate(-87.45 -122.38)"/><path class="cls-1" d="M99.65,148.86a.92.92,0,0,0,.27-.42l0-.11c0-.06-.06-.1-.23-.13l-.63-.08q-.37,0-.84-.06l-.84,0-.19,0-.37,0-.37,0a.59.59,0,0,1-.2,0l-.09-.08.07-.23a3.71,3.71,0,0,0,.24-.36,5.77,5.77,0,0,0,.35-.68,12.3,12.3,0,0,0,.48-1.2c.18-.5.39-1.16.64-2l.23-.78.3-.92c.15-.5.33-1,.51-1.58s.36-1.08.51-1.57.25-.79.29-.9l.5-1.66a1.07,1.07,0,0,0,0-.25,1.83,1.83,0,0,1,0-.26l.2-.67c.49-.5,1-1,1.45-1.38s.95-.83,1.41-1.21.9-.78,1.33-1.18a15.36,15.36,0,0,0,1.27-1.28l.13,0a1.26,1.26,0,0,1-.15.36,1.68,1.68,0,0,0-.15.34l-.06.22a.05.05,0,0,1,0,0s0,0,0,0a3.52,3.52,0,0,0,.79.2c.41.07.83.15,1.27.25l1.17.26c.35.08.51.17.5.24a6.81,6.81,0,0,1-.45,1.31,7,7,0,0,0-.51,1.57l-.11.51a1,1,0,0,1-.11.32.67.67,0,0,0-.09.21l-.16.76a5.8,5.8,0,0,0-.1.63c0,.2,0,.42-.09.67s-.07.55-.11.89-.11.78-.2,1.3l0,.11c0,.12-.07.27-.13.46s-.12.39-.17.58-.09.35-.13.49a1.49,1.49,0,0,0-.06.23,2.77,2.77,0,0,1-.42.88,2.39,2.39,0,0,0-.38.72l-2.06,1.91a40.19,40.19,0,0,1-3.37,2.71l-1.39,1.27-.13,0-.06-.05s0,0,0-.08A1.8,1.8,0,0,1,99.65,148.86Zm1.61-4.18a4.07,4.07,0,0,0,2-.13l.13,0a1.38,1.38,0,0,1,.2-.37,1.31,1.31,0,0,0,.21-.45c.31-1.26.61-2.51.91-3.76a4.27,4.27,0,0,0,.09-.44c0-.24.1-.49.15-.76s.09-.52.13-.75.08-.37.09-.42l.29-1.2a1.6,1.6,0,0,0,.28-.49c.1-.26.18-.51.24-.73l.13-.55s-.06,0-.16,0a3.21,3.21,0,0,0-.41-.16,2.6,2.6,0,0,0-.65-.12,2.8,2.8,0,0,0-.88.09l-.2,0c0,.07-.09.2-.17.41l-.15.4-.23.86c0,.08-.23.61-.56,1.59s-.72,2.18-1.15,3.61l-.06.23q-.35,1-.54,1.47c-.13.33-.3.71-.52,1.14v.05l0,.06A2,2,0,0,0,101.26,144.68Z" transform="translate(-87.45 -122.38)"/><path class="cls-1" d="M109.85,145.6l-.53-.43c-.23-.18-.66-.48-1.29-.89l0-.22.33-.48c.16-.24.27-.39.32-.46s.06-.26.13-.5.13-.48.18-.74.12-.5.18-.74.09-.4.11-.5l.2-1.07c0-.11.08-.37.18-.79s.2-.87.3-1.35.2-.93.29-1.34.14-.68.16-.8c.26-1.35.51-2.7.77-4.06,0-.07,0-.22.07-.43s.06-.45.1-.7.07-.49.1-.71,0-.38.06-.48a3.62,3.62,0,0,0,0-.89c0-.33,0-.68-.08-1.06s-.05-.76-.06-1.16a6.54,6.54,0,0,1,.12-1.22l.16,0c0,.07,0,.2,0,.38s0,.38,0,.58,0,.37.07.52,0,.22.08.21l.11,0a8.9,8.9,0,0,0,1-.8,9.36,9.36,0,0,1,1.14-.9,6.91,6.91,0,0,1,.57-.46,10.42,10.42,0,0,0,1.23-1.15l.18,0V123c-.13.18-.26.34-.38.48a2.52,2.52,0,0,0-.36.54,4.83,4.83,0,0,0-.35.94,12,12,0,0,0-.33,1.64l-2.42,15.5c0,.11.08.21.22.3a1.37,1.37,0,0,1,.38.34.85.85,0,0,1,.16.52,1.19,1.19,0,0,1-.45.77c-.15.13-.36.34-.64.63s-.58.58-.89.87-.6.56-.88.8a1.9,1.9,0,0,1-.62.39.76.76,0,0,1,.22-.4.65.65,0,0,0,.2-.36C110.07,145.84,110,145.72,109.85,145.6Z" transform="translate(-87.45 -122.38)"/><path class="cls-1" d="M116.25,144.73l-.57-.46c-.24-.2-.7-.52-1.37-1l0-.22.3-.47c.15-.22.24-.37.29-.43s0-.26.1-.49.1-.48.14-.74.08-.49.13-.73.06-.39.07-.49l.14-1.06c0-.11.06-.37.13-.78s.14-.86.21-1.33.14-.92.2-1.33.1-.68.11-.79l.51-4c0-.07,0-.22,0-.43s0-.45.06-.7,0-.48,0-.7,0-.38,0-.47a3.45,3.45,0,0,0,0-.9c0-.33-.1-.68-.16-1.06s-.1-.77-.13-1.17a5.47,5.47,0,0,1,0-1.21l.15,0c0,.07,0,.2,0,.39s.06.38.1.58a4.83,4.83,0,0,0,.1.52c0,.16.06.23.1.23l.11,0a9,9,0,0,0,1-.74,10.23,10.23,0,0,1,1.1-.83,5.84,5.84,0,0,1,.55-.42,8.53,8.53,0,0,0,1.17-1.08h.18v.11a4.39,4.39,0,0,1-.34.45,2.31,2.31,0,0,0-.34.53,4.8,4.8,0,0,0-.29.92A12.49,12.49,0,0,0,120,126l-1.41,15.38a.46.46,0,0,0,.25.32,1.7,1.7,0,0,1,.4.36.91.91,0,0,1,.2.53c0,.2-.12.45-.4.75a8.48,8.48,0,0,0-.62.58c-.26.28-.54.55-.84.82s-.57.53-.84.75a1.5,1.5,0,0,1-.6.35.56.56,0,0,1,.19-.38.58.58,0,0,0,.19-.35A.46.46,0,0,0,116.25,144.73Z" transform="translate(-87.45 -122.38)"/><path class="cls-1" d="M122.27,144.22c-.27-.15-.55-.32-.84-.5a9.08,9.08,0,0,1-.76-.51c-.22-.16-.33-.28-.32-.38a3.78,3.78,0,0,1,.19-.8,3.52,3.52,0,0,0,.18-.82q.27-3.79.52-7.59a3.54,3.54,0,0,0-.08-1.07,3.53,3.53,0,0,1-.08-1.13v-.11a1.35,1.35,0,0,1,.16-.2l.39-.43.46-.5.41-.42.33-.32c.58-.55,1.13-1,1.64-1.43s.78-.73.78-1h.23l.1.11a2.45,2.45,0,0,0-.14.21.52.52,0,0,0-.09.21v.22a10.58,10.58,0,0,0,1.49.61l1.7.54c.54.18,1,.34,1.38.49s.59.29.59.4a5,5,0,0,0-.33,1.18,8.18,8.18,0,0,0-.11,1.85q.13,4,.26,8a1.85,1.85,0,0,0,.49.56.73.73,0,0,1,.34.55,1.25,1.25,0,0,1-.21.63,5.84,5.84,0,0,1-.5.76c-.19.25-.37.49-.55.7a5.4,5.4,0,0,0-.32.44l-.26.44a.76.76,0,0,1-.21.24c-.13.11-.19.06-.19-.17a.43.43,0,0,1,.13-.3.47.47,0,0,0,.12-.3v0a.23.23,0,0,0-.1-.19l-.27-.23a6,6,0,0,0-.63-.44,7.93,7.93,0,0,0-.82-.45,7.39,7.39,0,0,0-.84-.34,2.22,2.22,0,0,0-.68-.13h-.19a1.09,1.09,0,0,0-.79.4c-.28.29-.56.6-.83.94s-.52.66-.77.95-.46.45-.65.46a1.2,1.2,0,0,1,.1-.28.94.94,0,0,0,.1-.28v-.22A3.53,3.53,0,0,0,122.27,144.22Zm1.62-3.61a1,1,0,0,0,.06.25s.07.1.23.18a5.67,5.67,0,0,0,.55.27l.58.26a1.89,1.89,0,0,1,.34.19h.49s.18-.12.41-.36.35-.41.35-.5c0-.78,0-1.65,0-2.62s0-1.9.08-2.79.06-1.66.08-2.34,0-1.1.06-1.29a.7.7,0,0,0-.29-.22,5.57,5.57,0,0,0-.66-.27c-.26-.09-.53-.17-.82-.24a3.4,3.4,0,0,0-.81-.09c-.12,0-.21.26-.26.77s-.09,1-.11,1.43l0,.67-.12,3.38c0,.06,0,.22,0,.49s0,.55-.06.86,0,.59-.08.86-.05.44-.05.51v.33C123.85,140.39,123.87,140.48,123.89,140.61Z" transform="translate(-87.45 -122.38)"/><path class="cls-1" d="M132.88,143.21a1,1,0,0,0-.35-.08.79.79,0,0,1-.35-.09c-.1,0-.16-.17-.17-.38l.67-1.18a1.89,1.89,0,0,0,.31-1.06l-.57-9.28L131.26,130s.09-.21.32-.51a16.91,16.91,0,0,1,1.29-1.39,1.6,1.6,0,0,0,.34-.44,4.09,4.09,0,0,1,.3-.44c.09-.12.17-.16.23-.13s.09.22.12.55c0,.06.08.14.22.24a3.83,3.83,0,0,0,.47.31,4.68,4.68,0,0,0,.54.3,1.39,1.39,0,0,0,.41.15l.08.72a.81.81,0,0,0,.62-.31,7.59,7.59,0,0,0,.64-.73l.55-.73q.26-.34.39-.33l.09.67c0,.17.21.33.56.49l1.17.46c.43.15.82.3,1.18.44s.55.3.57.45a1.61,1.61,0,0,1,0,.62,1.52,1.52,0,0,0,0,.64l0,.22c0,.54.08,1,.13,1.42s.11.86.18,1.35.17,1.07.29,1.73l.44,2.56.23,1.43.22,1.32c.07.39.13.74.19,1s.11.55.14.72-.1.31-.34.66a4,4,0,0,1-.76.85l-.32.25c-.08,0-.22.15-.41.3l-.61.46a5.61,5.61,0,0,1-.56.34c-.17.08-.26.08-.27,0l-.05-.42a12.27,12.27,0,0,0-2.77-1.13l-.24,0s-.07.11-.08.32,0,.47,0,.73,0,.61,0,1a6.13,6.13,0,0,1-.59.59c-.32.29-.68.59-1.11.91a9.68,9.68,0,0,1-1.31.84,2.36,2.36,0,0,1-1.13.34v-.14a.76.76,0,0,0,.25-.56c0-.26.06-.55.07-.85s.05-.59.08-.85a.68.68,0,0,1,.24-.53l-.15-2.42C133,143.37,133,143.25,132.88,143.21Zm3.89-2.2a4.69,4.69,0,0,0,.84.41,9,9,0,0,0,1,.32,4.22,4.22,0,0,0,.74.17l.39.05,0-.52c-.24-1.8-.48-3.59-.71-5.39,0-.06,0-.21-.05-.45s0-.51-.06-.8,0-.59-.07-.88-.05-.49-.07-.62a1.88,1.88,0,0,1,0-.29,4.32,4.32,0,0,0,0-.5c0-.18,0-.34,0-.5s0-.26,0-.29l-.06-.42s-.33-.15-.92-.38-1.26-.45-2-.69h-.09a.34.34,0,0,1-.06.12.42.42,0,0,0,0,.09c0,.46,0,.91,0,1.36.29,2.92.57,5.85.86,8.77C136.4,140.71,136.53,140.86,136.77,141Z" transform="translate(-87.45 -122.38)"/><path class="cls-1" d="M144.75,144.5c.1-.27.23-.56.38-.88s.31-.63.47-1a6.76,6.76,0,0,1,.47-.75.66.66,0,0,1,.06-.39,2.6,2.6,0,0,1,.25-.36,1.33,1.33,0,0,0,.23-.38.69.69,0,0,0,0-.47l0-.17a2.44,2.44,0,0,0-.6-.51l-1-.68c-.34-.23-.65-.46-.93-.67s-.43-.39-.45-.54c-.3-1.63-.59-3.27-.89-4.9-.05-.28.13-.62.52-1a13.86,13.86,0,0,1,1.28-1.12c.45-.35.85-.66,1.2-.91s.48-.4.39-.42l.11,0a.67.67,0,0,1,.13.13l0,.09a.85.85,0,0,1-.07.15c0,.06-.06.11-.07.14l0,.09a3.48,3.48,0,0,0,.78.58c.35.2.73.41,1.15.61s.82.37,1.22.53a10.46,10.46,0,0,0,1,.35c.55.17.88.15,1-.07a.94.94,0,0,0,0-.68l0-.09a6.5,6.5,0,0,0-.7-1,1.9,1.9,0,0,0-.8-.68l-.81-.22a1,1,0,0,0-.37.07,3.91,3.91,0,0,0-.6.21,3.13,3.13,0,0,0-.55.27c-.15.09-.22.18-.2.26l-.06-.23a6.75,6.75,0,0,1,.63-.76,1,1,0,0,1,1.14-.22l.8.22a2.39,2.39,0,0,1,1.2.84,3.51,3.51,0,0,1,.69,1.1s0,.14.06.31a1.61,1.61,0,0,1,0,.41c0,.23-.09.51-.15.83s-.14.65-.22,1-.17.65-.26.92a.33.33,0,0,1-.28.25c-.16,0-.23.1-.21.17a.23.23,0,0,1,0,.07l.54.55.43.41.71.64.69.65a3.79,3.79,0,0,1,.4.44l.33.49q1.16,4.11,2.28,8.22s-.1.08-.27.35-.36.57-.59.91a10.25,10.25,0,0,1-.67.91c-.23.27-.38.38-.46.32l-.07,0a.42.42,0,0,1-.12-.12l-.09-.34a3.21,3.21,0,0,0-.33-.26l-.38-.22-1.11-.5-.88-.38-.85-.36c-.29-.12-.63-.24-1-.38-.11,0-.3-.08-.56-.16l-.84-.27-.88-.28a6.43,6.43,0,0,0-.66-.18l-1.12-.2c-.17,0-.25.05-.25.07l.1.53a3.24,3.24,0,0,1,.24.25c.13.14.29.29.47.46a6.86,6.86,0,0,0,.59.48,1.68,1.68,0,0,0,.59.27l0,.1a.81.81,0,0,1-.25.05l-.13,0a5.47,5.47,0,0,1-1.08-.61,1.82,1.82,0,0,1-.84-1.17l-.05-.31-.06-.34A1.23,1.23,0,0,1,144.75,144.5Zm4.81-1c.35.11.59.18.7.23a2.14,2.14,0,0,1,.48.18l.66.29.62.29a2.23,2.23,0,0,0,.39.16l.25.07a4.44,4.44,0,0,0,0-.47c0-.24-.06-.4-.08-.48l-1.17-4.47-.81-.8a2.3,2.3,0,0,0-.85-.63l-.2-.05a.38.38,0,0,1-.14.06l-.17.08s0,0-.11.11a2.93,2.93,0,0,0-.25.35c-.09.14-.19.29-.29.46a2.4,2.4,0,0,0-.24.42,3.23,3.23,0,0,1-.44.74c-.22.28-.43.57-.65.88a6.67,6.67,0,0,0-.53.91,1.3,1.3,0,0,0-.14.81l0,.09a.17.17,0,0,0,.15.14l2.17.44Zm-2.84-6.81a2.26,2.26,0,0,0,1.32.93h.24l.09-.08c.31-.45.62-.89.93-1.3a2.59,2.59,0,0,0,.53-1.31v-.06l-.16-.17a4.61,4.61,0,0,1-.94-.38l-1.08-.57-1.06-.56a3.76,3.76,0,0,0-.84-.33h-.13c-.06,0-.09,0-.08.06l.24,1.14.24,1.13A4.07,4.07,0,0,0,146.72,136.68Z" transform="translate(-87.45 -122.38)"/><path class="cls-1" d="M163.18,151.22a.88.88,0,0,1,.2-.25l-.12-.35c.13,0,.07-.09-.18-.26a10,10,0,0,0-1-.61c-.44-.25-.94-.51-1.51-.8s-1.11-.55-1.6-.78l-1.26-.59a3.4,3.4,0,0,1-.51-.26l0-.12a3,3,0,0,1-.1-.62,5.08,5.08,0,0,0-.1-.84l-.27-1.21c-.07-.32-.13-.61-.18-.85s-.11-.48-.17-.7-.13-.47-.22-.76c-.16-.53-.31-1.05-.47-1.57-.07-.21-.15-.47-.25-.76s-.19-.58-.29-.86a5.6,5.6,0,0,1-.23-.7,1.07,1.07,0,0,1-.06-.33l.08-.08,0-.12s-.05-.14-.11-.31l-.2-.53a5.21,5.21,0,0,1-.2-.54c-.06-.17-.1-.27-.11-.31l-.17-.55s-.07-.19-.18-.45-.18-.42-.19-.45l0-.12a.4.4,0,0,1,.13-.42,2.26,2.26,0,0,1,.52-.38,6.43,6.43,0,0,1,.74-.35c.27-.11.53-.23.78-.35a1.7,1.7,0,0,0,.29-.2l.34-.28a3.75,3.75,0,0,1,.33-.26.62.62,0,0,1,.27-.12.82.82,0,0,1,0,.36c0,.17,0,.28,0,.32l0,.07a4.79,4.79,0,0,0,.37.38l.75.74.86.87c.28.3.51.55.67.75s.59.69,1,1.17.81,1,1.18,1.48a8.45,8.45,0,0,1,.86,1.43c.2.45.2.78,0,1a1.94,1.94,0,0,0-.41.75,1.74,1.74,0,0,1-.43.75l-.48.48a2,2,0,0,1-1.08.51,2,2,0,0,0-.92.34l-.09.08s0,.07,0,.11a.14.14,0,0,0,0,.09l.69,2.09q2.16,1.14,4.34,2.38s.06,0,.15,0,.13,0,.11-.07l0-.09a2.28,2.28,0,0,0,0-.5c0-.27-.08-.55-.11-.83s-.07-.55-.1-.78,0-.34,0-.33a3.1,3.1,0,0,1,.38.63c.08.2.16.41.24.6a3.84,3.84,0,0,1,.16.52,1.44,1.44,0,0,1,0,.68,3.36,3.36,0,0,1-.29,1.94,3.64,3.64,0,0,1-.49.81,3.16,3.16,0,0,1-.6.61l-.33.27a.81.81,0,0,1-.35-.33Zm-4-8.71.21.07c.74.26,1.25.2,1.51-.18a1.53,1.53,0,0,0,.08-1.46,3,3,0,0,0-.27-.6,2.93,2.93,0,0,1-.19-.4l-.08-.23c-.31-.33-.62-.68-.92-1.07l-.86-1.1c-.28-.35-.54-.66-.79-.92a2,2,0,0,0-.65-.53l-.12,0c.07.4.18.9.32,1.5s.26,1.06.38,1.41l1.1,3.32.12.15Z" transform="translate(-87.45 -122.38)"/></svg>